<svg width="32" height="32" viewBox="0 0 32 32" fill="none" xmlns="http://www.w3.org/2000/svg">
<rect width="32" height="32" fill="white"/>
<path d="M9.99998 12C9.89389 12 9.79215 12.0421 9.71713 12.1172C9.64212 12.1922 9.59998 12.2939 9.59998 12.4C9.59998 12.5061 9.64212 12.6078 9.71713 12.6828C9.79215 12.7579 9.89389 12.8 9.99998 12.8H14.4C14.5061 12.8 14.6078 12.7579 14.6828 12.6828C14.7578 12.6078 14.8 12.5061 14.8 12.4C14.8 12.2939 14.7578 12.1922 14.6828 12.1172C14.6078 12.0421 14.5061 12 14.4 12H9.99998ZM12.4 14.4C12.2939 14.4 12.1921 14.4421 12.1171 14.5172C12.0421 14.5922 12 14.6939 12 14.8C12 14.9061 12.0421 15.0078 12.1171 15.0828C12.1921 15.1579 12.2939 15.2 12.4 15.2H16.4C16.5061 15.2 16.6078 15.1579 16.6828 15.0828C16.7578 15.0078 16.8 14.9061 16.8 14.8C16.8 14.6939 16.7578 14.5922 16.6828 14.5172C16.6078 14.4421 16.5061 14.4 16.4 14.4H12.4ZM11.2 17.2C11.2 17.0939 11.2421 16.9922 11.3171 16.9172C11.3921 16.8421 11.4939 16.8 11.6 16.8H19.6C19.7061 16.8 19.8078 16.8421 19.8828 16.9172C19.9578 16.9922 20 17.0939 20 17.2C20 17.3061 19.9578 17.4078 19.8828 17.4828C19.8078 17.5579 19.7061 17.6 19.6 17.6H11.6C11.4939 17.6 11.3921 17.5579 11.3171 17.4828C11.2421 17.4078 11.2 17.3061 11.2 17.2ZM9.99998 19.2C9.89389 19.2 9.79215 19.2421 9.71713 19.3172C9.64212 19.3922 9.59998 19.4939 9.59998 19.6C9.59998 19.7061 9.64212 19.8078 9.71713 19.8828C9.79215 19.9579 9.89389 20 9.99998 20H16.8C16.9061 20 17.0078 19.9579 17.0828 19.8828C17.1578 19.8078 17.2 19.7061 17.2 19.6C17.2 19.4939 17.1578 19.3922 17.0828 19.3172C17.0078 19.2421 16.9061 19.2 16.8 19.2H9.99998ZM18 14.8C18 14.6939 18.0421 14.5922 18.1171 14.5172C18.1921 14.4421 18.2939 14.4 18.4 14.4H21.2C21.3061 14.4 21.4078 14.4421 21.4828 14.5172C21.5578 14.5922 21.6 14.6939 21.6 14.8C21.6 14.9061 21.5578 15.0078 21.4828 15.0828C21.4078 15.1579 21.3061 15.2 21.2 15.2H18.4C18.2939 15.2 18.1921 15.1579 18.1171 15.0828C18.0421 15.0078 18 14.9061 18 14.8ZM16.4 12C16.2939 12 16.1921 12.0421 16.1171 12.1172C16.0421 12.1922 16 12.2939 16 12.4C16 12.5061 16.0421 12.6078 16.1171 12.6828C16.1921 12.7579 16.2939 12.8 16.4 12.8H22C22.1061 12.8 22.2078 12.7579 22.2828 12.6828C22.3578 12.6078 22.4 12.5061 22.4 12.4C22.4 12.2939 22.3578 12.1922 22.2828 12.1172C22.2078 12.0421 22.1061 12 22 12H16.4Z" fill="#00755E"/>
</svg>
