<svg width="32" height="32" viewBox="0 0 32 32" fill="none" xmlns="http://www.w3.org/2000/svg">
<path fill-rule="evenodd" clip-rule="evenodd" d="M18.6664 2.66604C18.6666 2.37293 18.5701 2.08794 18.392 1.85515C18.2139 1.62237 17.964 1.45476 17.6811 1.37825C17.3981 1.30175 17.0979 1.32061 16.8267 1.43192C16.5556 1.54324 16.3287 1.7408 16.1811 1.99404L6.84774 17.994C6.7295 18.1967 6.66682 18.4269 6.66602 18.6615C6.66523 18.8961 6.72635 19.1268 6.84321 19.3302C6.96007 19.5336 7.12854 19.7026 7.3316 19.8201C7.53467 19.9376 7.76514 19.9994 7.99974 19.9994H13.3331V29.3327C13.3329 29.6258 13.4294 29.9108 13.6075 30.1436C13.7856 30.3764 14.0354 30.544 14.3184 30.6205C14.6013 30.697 14.9016 30.6782 15.1728 30.5668C15.4439 30.4555 15.6708 30.258 15.8184 30.0047L25.1517 14.0047C25.27 13.8021 25.3327 13.5718 25.3335 13.3372C25.3343 13.1026 25.2731 12.872 25.1563 12.6685C25.0394 12.4651 24.8709 12.2961 24.6679 12.1786C24.4648 12.0611 24.2343 11.9993 23.9997 11.9994H18.6664V2.66604Z" fill="#00755E"/>
</svg>
