<svg width="32" height="33" viewBox="0 0 32 33" fill="none" xmlns="http://www.w3.org/2000/svg">
<path d="M15.5566 4.29219C15.6879 4.20482 15.8421 4.1582 15.9998 4.1582C16.1575 4.1582 16.3117 4.20482 16.443 4.29219C19.4636 6.3285 22.9068 7.65295 26.5134 8.16579C26.704 8.19313 26.8783 8.28826 27.0044 8.43374C27.1304 8.57922 27.1998 8.76528 27.1998 8.95779V16.1578C27.1998 22.3834 23.5086 26.9258 16.2878 29.705C16.1025 29.7765 15.8971 29.7765 15.7118 29.705C8.4926 26.9258 4.7998 22.3818 4.7998 16.1578V8.95779C4.79983 8.76504 4.86945 8.57878 4.99586 8.43327C5.12226 8.28776 5.29695 8.19277 5.4878 8.16579C9.09384 7.65271 12.5365 6.32828 15.5566 4.29219Z" fill="#00755E"/>
</svg>
